<?xml version="1.0" standalone="no"?><!DOCTYPE svg PUBLIC "-//W3C//DTD SVG 1.1//EN" "http://www.w3.org/Graphics/SVG/1.1/DTD/svg11.dtd"><svg t="1521431508309" class="icon" style="" viewBox="0 0 1024 1024" version="1.1" xmlns="http://www.w3.org/2000/svg" p-id="1986" xmlns:xlink="http://www.w3.org/1999/xlink" width="200" height="200"><defs><style type="text/css"></style></defs><path d="M892.802843 401.958556l0 21.155713c-2.580997 8.356507-3.490693 16.395678-6.240935 24.688718-8.906555 50.054418-27.523583 96.660455-53.947069 137.914096-76.689461 167.172448-186.106812 316.172138-320.614838 438.282916C377.491974 901.889222 268.095779 752.889532 191.385162 585.717084c-26.423486-41.232486-45.040514-87.838522-53.925914-137.914096C134.709006 439.509948 133.79931 431.470777 131.197157 423.11427l0-21.155713c-1.544367-13.899304 0-6.833295 0-21.155713 0-210.308948 170.493895-380.802843 380.802843-380.802843s380.802843 170.493895 380.802843 380.802843C892.802843 395.125261 894.34721 388.059253 892.802843 401.958556zM849.899056 380.739376c0-186.762639-151.263351-338.17408-337.899056-338.17408S174.100944 193.976737 174.100944 380.739376c0 12.714584-1.375121 6.452493 0 18.786274l0 18.786274c2.284817 7.425655 3.088734 14.576287 5.542797 21.938475 7.891081 44.448154 24.413693 85.849885 47.854224 122.491581 68.079086 148.449642 165.162655 280.757474 284.502035 389.180505 119.360536-108.423032 216.444105-240.75202 284.502035-389.180505 23.419375-36.62054 39.963143-78.022271 47.854224-122.491581 2.454063-7.362188 3.25798-14.512819 5.542797-21.938475l0-18.786274C851.274177 387.191868 849.899056 393.453959 849.899056 380.739376zM512 507.737124c-87.626965 0-158.667851-71.040886-158.667851-158.667851s71.040886-158.667851 158.667851-158.667851 158.667851 71.040886 158.667851 158.667851S599.626965 507.737124 512 507.737124zM512 232.712848c-64.249902 0-116.356424 52.085367-116.356424 116.356424s52.106522 116.356424 116.356424 116.356424c64.271058 0 116.356424-52.085367 116.356424-116.356424S576.271058 232.712848 512 232.712848z" p-id="1987" fill="#b3b3b3"></path></svg>