<?xml version="1.0" standalone="no"?><!DOCTYPE svg PUBLIC "-//W3C//DTD SVG 1.1//EN" "http://www.w3.org/Graphics/SVG/1.1/DTD/svg11.dtd"><svg t="1516600623831" class="icon" style="" viewBox="0 0 1024 1024" version="1.1" xmlns="http://www.w3.org/2000/svg" p-id="1912" xmlns:xlink="http://www.w3.org/1999/xlink" width="16" height="16"><defs><style type="text/css"></style></defs><path d="M889.6 844.8l-153.6-153.6c12.8-25.6 25.6-51.2 25.6-83.2 0-83.2-64-147.2-147.2-147.2-83.2 0-147.2 64-147.2 147.2 0 83.2 64 147.2 147.2 147.2 32 0 57.6-6.4 83.2-25.6l153.6 153.6c12.8 12.8 25.6 12.8 38.4 0S896 857.6 889.6 844.8zM614.4 716.8c-57.6 0-108.8-51.2-108.8-108.8 0-57.6 51.2-108.8 108.8-108.8 57.6 0 108.8 51.2 108.8 108.8C716.8 665.6 672 716.8 614.4 716.8z" p-id="1913" fill="#8a8a8a"></path><path d="M864 774.4 864 204.8c0-25.6-19.2-51.2-51.2-51.2L204.8 153.6c-25.6 0-51.2 19.2-51.2 51.2l0 608c0 25.6 19.2 51.2 51.2 51.2l563.2 0 32 32L192 896c-38.4 0-64-25.6-64-64L128 192c0-38.4 25.6-64 64-64l640 0c38.4 0 64 25.6 64 64l0 614.4L864 774.4z" p-id="1914" fill="#8a8a8a"></path></svg>