<?xml version="1.0" standalone="no"?><!DOCTYPE svg PUBLIC "-//W3C//DTD SVG 1.1//EN" "http://www.w3.org/Graphics/SVG/1.1/DTD/svg11.dtd"><svg t="1516009712267" class="icon" style="" viewBox="0 0 1028 1024" version="1.1" xmlns="http://www.w3.org/2000/svg" p-id="4698" xmlns:xlink="http://www.w3.org/1999/xlink" width="200.78125" height="200"><defs><style type="text/css"></style></defs><path d="M826.866989 1023.999997c-74.416745 0-160.90454-28.925577-257.119806-85.942031-87.450912-50.467266-180.03844-124.20983-274.937447-219.108837-81.86484-81.86484-157.341012-179.588986-212.495442-275.226382-28.315604-45.972726-45.908518-91.656517-60.098424-130.759018C7.480199 272.384452 0 234.566106 0 200.503912c0-18.427615 6.613395-37.657827 18.71655-54.255522 11.332662-18.652342 26.389372-37.336788 44.624364-55.635988 16.822422-16.822422 69.440647-62.89146 93.133295-78.686558 2.24727-1.476778 4.65506-2.66462 7.191264-3.531424l20.418054-6.838122c10.819-3.627736 22.857948-0.802596 30.916016 7.31968 2.24727 2.24727 4.976098 4.398229 8.122276 7.030745 6.228149 5.168721 13.708348 11.39687 22.504805 20.193327 18.523927 22.023247 35.378453 45.234337 58.268504 79.489155 36.791022 53.485029 58.172192 101.095052 67.578623 124.691388 1.444674 3.627736 2.183062 7.448095 2.183062 11.268455 0 14.799879-8.796457 24.944698-30.049212 49.472047-6.934434 7.993861-18.523927 21.38117-20.96382 25.650983C316.062491 338.293675 317.346645 349.626337 320.428616 370.461741c0.674181 4.430333 1.316258 8.989081 1.894128 13.612036 6.581291 29.086096 12.681024 56.663311 41.638705 94.25693 15.47406 23.082675 36.309465 45.715895 58.39692 69.665374 7.191264 7.801238 14.510944 15.730891 21.830624 23.885271 23.435817 23.371609 53.870275 51.558798 89.34504 82.539021 35.250037 27.063553 64.015095 40.226135 89.056105 40.226135 37.368892 0 66.230261-14.896191 89.537663-29.471343 1.540985-0.963116 3.146178-1.797816 4.783475-2.439893 5.521864-2.183062 10.594273-4.879787 15.281437-7.255472 11.364766-5.875006 23.146882-11.942636 36.791022-11.942636 4.687163 0 9.342223 1.091531 13.515725 3.178282l3.563528 1.797816c16.854526 8.282796 61.607305 30.273939 123.407234 75.829315 40.418758 30.306043 69.761686 55.058118 89.152416 71.398982 7.062849 5.939214 12.841544 10.819 17.336084 14.47884 8.186484 6.549187 12.39209 16.918734 11.075831 27.320384-5.939214 47.83475-89.473455 132.556834-90.308155 133.35943-13.419413 13.419413-34.351129 31.333366-57.786946 40.771901C864.910062 1018.767068 843.5931 1023.999997 826.866989 1023.999997zM186.844458 64.415655c-20.54647 14.607256-65.684496 53.838172-80.805413 68.959089C90.853921 148.559869 78.654455 163.777097 69.729582 178.60908c-0.545766 0.898908-1.123635 1.765712-1.733608 2.600413C61.157851 190.326989 60.419463 197.74298 60.419463 200.503912c0 26.967242 6.260253 57.883258 18.620238 91.817037 13.194686 36.309465 29.439239 78.590247 55.218637 120.453679 53.067679 91.913348 125.108738 185.207162 203.313738 263.444266 91.17496 91.17496 179.556882 161.707137 262.705877 209.670302 87.065666 51.623005 163.183914 77.659235 226.62114 77.659235 5.361344 0 17.72133-2.24727 27.352488-6.998641 13.162582-5.393448 26.485684-15.120918 39.808785-28.411915 26.132541-26.132541 55.090222-63.180394 67.289688-84.786292-0.545766-0.481558-1.091531-0.931012-1.669401-1.41257-18.877069-15.923514-47.4174-39.969304-86.263069-69.119608-50.820409-37.4331-87.868262-57.080661-107.451616-66.840234-1.82992 0.963116-4.173502 2.183062-6.131837 3.210386-5.521864 2.82514-11.493182 5.875006-17.849746 8.539626-28.604538 17.689226-67.739142 37.27258-119.394252 37.27258-39.038293 0-79.521259-17.143461-127.356009-53.934483C457.319469 667.936098 425.889792 638.850002 400.367225 613.391641c-8.250692-9.085392-15.409852-16.854526-22.408494-24.463141-23.724752-25.779399-46.101142-50.08202-63.019875-75.411965-35.956322-46.582699-44.528052-85.299953-51.430382-116.408593C263.251643 396.176933 262.513254 392.452885 262.384839 391.521873l-1.733608-12.23157C257.055598 354.730851 252.946304 326.961013 269.543999 297.874916c3.916671-7.961757 13.387309-19.069692 28.411915-36.405776 3.370905-3.884567 7.672822-8.860665 11.300558-13.194686-9.791677-22.055351-27.86615-58.685854-55.411261-98.719366-21.830624-32.745936-37.561515-54.383937-52.778744-72.683137C196.50772 72.505827 191.403206 68.171806 186.844458 64.415655L186.844458 64.415655z" p-id="4699" fill="#bfbfbf"></path></svg>