<?xml version="1.0" standalone="no"?><!DOCTYPE svg PUBLIC "-//W3C//DTD SVG 1.1//EN" "http://www.w3.org/Graphics/SVG/1.1/DTD/svg11.dtd"><svg t="1513754359910" class="icon" style="" viewBox="0 0 1449 1024" version="1.1" xmlns="http://www.w3.org/2000/svg" p-id="2646" xmlns:xlink="http://www.w3.org/1999/xlink" width="283.0078125" height="200"><defs><style type="text/css">background:#ccc</style></defs><path d="M1188.080 10.701c-2.098 37.795-2.948 74.57-6.406 111.097-7.959 84.026-28.139 164.943-65.573 241.049-36.893 74.988-87.843 138.519-153.954 189.891-4.39 3.411-8.366 9.865-8.948 15.285-6.145 57.152-34.512 103.434-71.297 145.167-59.269 67.233-131.94 117.193-210.074 159.823-7.507 4.096-14.74 6.583-20.912-1.415-6.079-7.87-2.063-14.119 3.59-20.665 48.409-56.1 77.482-120.733 85.207-194.693 0.852-8.148-1.365-13.824-8.702-18.681-23.718-15.706-48.752-30.125-69.939-48.821-39.956-35.252-77.283-73.307-101.503-122.116-2.163-4.356-10.764-8.25-16.064-7.883-44.309 3.062-86.543 14.971-125.003 36.974-25.315 14.485-48.65 32.491-72.498 49.444-6.449 4.583-13.233 8.189-18.567 1.754-3.34-4.027-5.145-13.163-2.854-17.459 47.088-88.441 103.263-169.971 183.395-232.249 36.031-28.004 75.707-48.441 122.269-52.894 5.073-0.484 11.183-4.198 14.366-8.307 84.765-109.469 197.718-173.293 330.713-204.54 66.643-15.655 134.464-21.082 202.783-21.252 2.309-0.007 4.623 0.218 9.974 0.491zM1159.238 68.269c0-4.495-0.022-6.062 0-7.629 0.324-22.318-0.763-24.698-22.938-22.526-45.51 4.453-91.355 7.972-136.158 16.587-105.375 20.259-200.572 63.082-279.426 137.649-67.85 64.164-114.96 140.772-136.626 232.359-3.885 16.434-1.667 30.822 7.396 44.69 35.379 54.115 80.221 98.829 133.561 135.239 16.24 11.084 32.901 13.795 52.257 8.745 115.678-30.185 206.236-96.134 273.971-193.466 74.002-106.338 101.115-227.498 107.965-351.649zM917.985 602.926c0.017-11.574-7.682-15.248-18.14-9.494-38.203 20.999-77.908 38.148-120.736 47.197-8.962 1.895-12.295 7.342-12.8 15.598-2.65 43.103-14.963 83.574-32.491 122.797-2.069 4.624 0.273 11.22 0.571 16.907 5.311-0.935 11.957-0.16 15.725-3.085 27.745-21.548 56.067-42.577 81.991-66.198 34.282-31.237 63.335-67.051 81.361-110.579 1.933-4.666 3.306-9.57 4.518-13.138zM411.279 467.365c4.806-1.895 8.842-3.306 12.726-5.046 32.274-14.468 65.634-25.298 100.929-29.088 28.866-3.102 27.228-3.383 36.9-30.672 12.359-34.866 27.979-68.563 41.601-102.999 2.020-5.11 0.798-11.502 1.075-17.3-5.51-0.163-11.483-1.762-16.433-0.175-9.232 2.96-18.144 7.276-26.716 11.9-44.42 23.973-80.182 58.273-112.336 96.453-15.583 18.508-29.787 38.207-43.951 57.849-2.474 3.429-2.599 9.415-1.873 13.91 0.34 2.111 5.267 3.487 8.077 5.171z" fill="#1296db" p-id="2647"></path><path d="M583.402 705.333c-0.736 38.37-20.582 63.799-44.558 86.515-41.757 39.577-91.989 66.031-143.814 89.401-32.417 14.619-65.663 27.446-98.87 40.214-4.794 1.846-12.695 0.54-16.829-2.493-2.946-2.156-4.015-10.39-2.461-14.644 28.112-76.95 59.024-152.603 108.167-219.161 16.364-22.167 34.928-42.253 58.887-56.543 27.946-16.659 57.101-20.251 85.659-3.043 30.835 18.579 52.561 44.213 53.818 79.754zM487.877 641.721c-1.421 0.229-5.319 0.601-9.085 1.507-28.38 6.83-47.38 26.818-64.602 48.175-40.682 50.452-67.271 108.819-91.564 168.282-1.809 4.426-2.458 13.333-0.403 14.509 4.549 2.608 11.983 3.699 16.799 1.782 50.912-20.276 100.449-43.495 145.723-74.718 24.863-17.15 48.45-36.068 63.367-63.217 22.318-40.638-11.202-96.279-60.236-96.322z" fill="#1296db" p-id="2648"></path><path d="M893.396 197.25c59.019-0.275 106.991 47.319 107.126 106.282 0.135 58.768-47.971 106.935-106.716 106.848-58.58-0.090-105.972-47.35-106.161-105.862-0.19-59.702 46.428-106.988 105.751-107.267zM973.535 303.874c0.054-44.012-35.958-80.231-79.751-80.217-43.531 0.013-80.064 36.9-79.679 80.445 0.382 43.458 36.203 79.401 79.339 79.616 43.831 0.218 80.035-35.875 80.093-79.843z" fill="#1296db" p-id="2649"></path></svg>